<svg xmlns="http://www.w3.org/2000/svg" width="24" height="24" viewBox="0 0 24 24" fill="none" stroke="currentColor" stroke-width="2" stroke-linecap="round" stroke-linejoin="round"><path d="M22 8s-1.95 5-8 5-8-5-8-5"/><path d="M2 8c.55 0 1.11.14 1.63.42a8.26 8.26 0 0 0 4.87.58A8.18 8.18 0 0 0 15 4a8.18 8.18 0 0 0 6.5 5"/><path d="M2 12c.55 0 1.11.14 1.63.42a8.26 8.26 0 0 0 4.87.58 8.1 8.1 0 0 0 3-.81"/><path d="M2 16c.55 0 1.11.14 1.63.42a8.26 8.26 0 0 0 4.87.58 8.1 8.1 0 0 0 3-.81"/><line x1="2" y1="20" x2="22" y2="20"/></svg>